<svg width="82" height="49" viewBox="0 0 82 49" fill="none" xmlns="http://www.w3.org/2000/svg">
<g clip-path="url(#clip0_4321_5752)">
<path fill-rule="evenodd" clip-rule="evenodd" d="M6.71367 40.9076L14.871 32.8466C12.8523 30.6614 11.6212 27.7536 11.6212 24.5618C11.6212 21.236 12.9577 18.2188 15.129 16.006L6.97563 7.94873C2.71811 12.2239 0.0913086 18.0897 0.0913086 24.5618C0.0913086 30.9 2.61062 36.6569 6.71367 40.9076Z" fill="#E8710A"/>
<path fill-rule="evenodd" clip-rule="evenodd" d="M38.6852 5.7951C34.6383 2.71065 29.5659 0.875977 24.0598 0.875977C17.3705 0.875977 11.3211 3.584 6.97314 7.9512L15.1266 16.0085C17.3875 13.7029 20.5543 12.2699 24.0598 12.2699C27.4765 12.2699 30.5715 13.6311 32.8195 15.8349L38.6852 5.7951Z" fill="#F9AB00"/>
<path fill-rule="evenodd" clip-rule="evenodd" d="M32.7075 33.3971C30.4692 35.537 27.42 36.8538 24.0596 36.8538C20.4199 36.8538 17.1453 35.309 14.8707 32.8467L6.71338 40.9077C11.0785 45.43 17.236 48.2477 24.0596 48.2477C29.5108 48.2477 34.5369 46.4494 38.5636 43.4205L32.7075 33.3971Z" fill="#F9AB00"/>
<path fill-rule="evenodd" clip-rule="evenodd" d="M40.9962 41.2139C36.6563 36.9273 33.9717 31.0041 33.9717 24.4612C33.9717 11.3799 44.7028 0.775391 57.9404 0.775391C64.5612 0.775391 70.5552 3.42822 74.893 7.717L66.7401 15.7737C64.4888 13.5468 61.3774 12.1693 57.9404 12.1693C51.0706 12.1693 45.5016 17.6726 45.5016 24.4612C45.5016 27.8577 46.8956 30.9325 49.1491 33.1572L40.9962 41.2139Z" fill="#F9AB00"/>
<path fill-rule="evenodd" clip-rule="evenodd" d="M74.8928 7.71704L66.7399 15.7737C68.9884 17.9978 70.3789 21.0691 70.3789 24.4613C70.3789 31.25 64.8099 36.7533 57.9402 36.7533C54.5075 36.7533 51.3995 35.3792 49.1489 33.1572L40.9961 41.2139C45.3332 45.4978 51.3235 48.1472 57.9402 48.1472C71.1777 48.1472 81.9088 37.5426 81.9088 24.4613C81.9088 17.9227 79.2278 12.003 74.8928 7.71704Z" fill="#E8710A"/>
</g>
<defs>
<clipPath id="clip0_4321_5752">
<rect width="82" height="47.3521" fill="white" transform="translate(0 0.823975)"/>
</clipPath>
</defs>
</svg>
