<svg width="24" height="32" viewBox="0 0 24 32" fill="none" xmlns="http://www.w3.org/2000/svg">
<path d="M16.4934 12.0714C16.6917 12.0842 16.9683 12.1597 17.2925 12.2068L20.5837 14.3333L9.8248 20.7325C9.663 20.7911 9.4721 20.853 9.2539 20.9088C8.97987 20.9791 8.72486 21.0243 8.49546 21.0534C8.32028 21.0729 8.08196 21.093 7.79958 21.0952L3.66699 16.1667L12.3417 12.7994C12.3406 12.8006 12.339 12.8017 12.3373 12.8028L12.3373 12.8028C13.2246 12.4696 13.9964 12.2994 14.5623 12.2068C15.1901 12.1041 15.8062 12.0081 16.4944 12.0717C16.4941 12.0716 16.4937 12.0715 16.4934 12.0714C16.4916 12.0713 16.4899 12.0712 16.4882 12.0711H16.4882C16.4896 12.0711 16.4917 12.0711 16.4934 12.0714Z" fill="#FFC400" style="fill:#FFC400;fill:color(display-p3 1.0000 0.7686 0.0000);fill-opacity:1;"/>
<path d="M16.2947 3.89641C16.2261 3.58668 16.1396 3.29927 16.0425 3.03474C15.87 2.55759 15.4833 1.52124 14.5368 0.584794C14.3632 0.412906 14.1349 0.20865 13.8453 0.000488281C12.689 1.39232 11.6515 2.39686 10.9657 3.0219C9.16584 4.66153 6.21979 6.93681 4.32792 8.6495C3.99977 8.94643 3.33287 9.61779 2.7307 10.6396C2.72959 10.6413 2.72847 10.643 2.72736 10.6452C2.72736 10.6452 2.72736 10.6441 2.72736 10.6435C2.61853 10.8311 2.48515 11.0738 2.34619 11.3646C2.32554 11.4064 2.30434 11.4527 2.28146 11.5019C2.22285 11.6285 2.1637 11.763 2.1051 11.9053C1.86904 12.4796 1.57996 13.1984 1.48508 14.155C1.40193 14.9893 1.50127 15.6506 1.55428 15.9374C1.57382 16.0424 1.59614 16.1445 1.62014 16.2455C1.70329 16.6049 1.81825 16.9403 1.95442 17.2511C2.60291 18.7551 3.67106 19.6257 3.85132 19.7686C4.99035 20.6688 6.14165 20.9255 6.50887 20.9958C7.02956 21.0951 7.47657 21.1086 7.79912 21.0996C7.79912 21.0985 7.79859 21.0968 7.79801 21.0957C7.7997 21.0957 7.80138 21.0957 7.80248 21.0957C7.80028 21.0929 7.79801 21.0896 7.79581 21.0868C7.73106 20.849 7.65349 20.503 7.6161 20.08C7.48828 18.629 7.94926 17.5112 8.18532 16.9548C8.36393 16.5345 8.80201 15.5479 9.73564 14.6505C10.1709 14.2319 10.642 13.8943 11.1091 13.5879C11.6158 13.2553 12.0589 12.9963 12.3118 12.8212C12.3033 12.8261 12.3201 12.8161 12.3118 12.8212C12.3212 12.815 12.3369 12.805 12.3447 12.7988C13.232 12.1425 14.9743 10.662 15.8834 8.27675C15.9905 7.99715 16.0737 7.72255 16.0737 7.72255C16.3589 6.83246 16.6396 5.45678 16.2936 3.89529L16.2947 3.89641Z" fill="url(#paint0_linear_785_5715)" style=""/>
<path d="M7.79578 21.1002C7.47323 21.1091 7.02564 21.0957 6.50552 20.9964C6.13831 20.9261 4.987 20.6694 3.84797 19.7692C3.62028 19.5889 1.97619 18.249 1.55038 15.938C1.49736 15.6511 1.39802 14.9898 1.48118 14.1555C1.57661 13.199 1.86513 12.4807 2.1012 11.9059C2.32275 11.3663 2.55212 10.9382 2.72345 10.6436C2.79656 10.8478 2.91766 11.1352 3.11801 11.4483C3.56447 12.1465 4.11194 12.5181 4.53664 12.7972C4.72135 12.9183 5.58414 13.4719 6.89003 13.7626C7.77456 13.9596 8.47329 13.9496 8.70992 13.9418C9.24065 13.9251 10.0839 13.8385 11.0399 13.4674C11.5924 13.2531 12.0383 12.9897 12.334 12.805C12.0807 12.9808 11.613 13.2553 11.1063 13.5874C10.6392 13.8938 10.1682 14.2314 9.73288 14.65C8.7992 15.5474 8.36111 16.534 8.18256 16.9543C7.94592 17.5101 7.48552 18.6285 7.61329 20.0795C7.65126 20.5098 7.73108 20.8608 7.79636 21.0985L7.79578 21.1002Z" fill="#FF9100" style="fill:#FF9100;fill:color(display-p3 1.0000 0.5686 0.0000);fill-opacity:1;"/>
<path d="M21.8228 20.6442C22.2179 19.8534 22.3909 19.0191 22.3909 19.0191C22.435 18.8065 22.498 18.4928 22.5259 18.1028C22.5511 17.7534 22.5349 17.1847 22.4512 16.7293C22.1844 15.2839 21.0783 14.1131 20.9645 13.9953C20.9645 13.9953 20.2178 13.2212 19.1178 12.6905C18.9565 12.613 18.6786 12.4779 18.2907 12.3601C17.909 12.2441 17.5976 12.1978 17.289 12.1531C16.9619 12.1057 16.6863 12.0828 16.4876 12.071C16.5345 12.0761 16.5998 12.0856 16.6763 12.1035C16.8565 12.1458 16.9831 12.21 17.0819 12.258C17.174 12.3032 17.3135 12.3735 17.467 12.5041C17.5295 12.5577 17.6071 12.6241 17.6841 12.729C17.7471 12.8161 17.8298 12.9528 17.8739 13.1337C18.0067 13.6822 17.6718 14.1934 17.5502 14.3793C16.6874 15.6969 12.0208 18.4437 9.25497 21.2949C8.55068 22.021 8.05063 22.6706 7.67729 23.5166C6.83457 25.4263 7.13594 27.1949 7.21463 27.6023C7.72523 30.2509 9.64894 31.6851 10.0938 31.9999C11.4499 30.4842 12.6497 29.3273 13.5354 28.5197C15.7777 26.4761 18.6993 24.217 18.6998 24.217C18.6998 24.217 20.9438 22.4033 21.8222 20.6448L21.8228 20.6442Z" fill="url(#paint1_linear_785_5715)" style=""/>
<defs>
<linearGradient id="paint0_linear_785_5715" x1="3.30114" y1="18.6575" x2="14.1378" y2="0.42906" gradientUnits="userSpaceOnUse">
<stop stop-color="#F8682F" style="stop-color:#F8682F;stop-color:color(display-p3 0.9725 0.4078 0.1843);stop-opacity:1;"/>
<stop offset="1" stop-color="#DD2C00" style="stop-color:#DD2C00;stop-color:color(display-p3 0.8667 0.1725 0.0000);stop-opacity:1;"/>
</linearGradient>
<linearGradient id="paint1_linear_785_5715" x1="13.4425" y1="13.5742" x2="12.2033" y2="35.3203" gradientUnits="userSpaceOnUse">
<stop stop-color="#F8682F" style="stop-color:#F8682F;stop-color:color(display-p3 0.9725 0.4078 0.1843);stop-opacity:1;"/>
<stop offset="0.566586" stop-color="#E92A4E" style="stop-color:#E92A4E;stop-color:color(display-p3 0.9137 0.1647 0.3059);stop-opacity:1;"/>
<stop offset="1" stop-color="#C447FF" style="stop-color:#C447FF;stop-color:color(display-p3 0.7703 0.2766 0.9991);stop-opacity:1;"/>
</linearGradient>
</defs>
</svg>
