<svg xmlns="http://www.w3.org/2000/svg" viewBox="0 0 192 192"><path fill="none" d="M0 0h192v192H0z"/><path fill="#3bd897" d="M54.56 54.78c-20.86 20.86-27.4 45.5-29.43 58.33A90.3 90.3 0 0 0 24 130.82a79.59 79.59 0 0 1 6.84-81.1 4 4 0 0 0-.43-5.16 4 4 0 0 0-6.09.47A87.58 87.58 0 0 0 8.1 100.14a87.07 87.07 0 0 0 13.52 42.76 6 6 0 0 0 9.31 1.03l.24-.24a6.07 6.07 0 0 0 1.66-5.33c-3.4-20.1 3.04-53.57 27.39-77.91 32.86-32.86 80.34-33.42 92.55-21.21l5.66-5.66C142.11 17.26 89.08 20.27 54.57 54.79Z"/><circle cx="96" cy="96" r="70" fill="#4285fa"/><circle cx="96" cy="74.38" r="26" fill="#fff"/><path fill="#fff" d="M136.34 143.18a40.46 40.46 0 0 0-80.68 0c10.86 9.3 24.95 14.94 40.34 14.94s29.47-5.64 40.34-14.94Z"/><path fill="#3bd897" d="M183.96 93.48c-1.29-45.73-37.94-83.17-83.63-85.37a87.6 87.6 0 0 0-55.32 16.21 4.01 4.01 0 0 0-.47 6.09 4.01 4.01 0 0 0 5.17.43 79.32 79.32 0 0 1 41.93-14.72c46.08-2.45 84.35 34.33 84.35 79.88a79.63 79.63 0 0 1-19.46 52.21 4.13 4.13 0 0 0-.34 5.1 4.01 4.01 0 0 0 6.27.3 87.66 87.66 0 0 0 21.49-60.13Z"/><circle cx="36.5" cy="36.5" r="7" fill="#dc9af8"/><circle cx="35" cy="154" r="7" fill="#dc9af8"/><path fill="#3bd897" d="M148.21 156.54A79.63 79.63 0 0 1 96 176a79.4 79.4 0 0 1-34.81-8c.99.04 1.99.07 3.01.07 4.66 0 9.6-.39 14.69-1.2 12.83-2.04 37.47-8.57 58.33-29.43 34.52-34.52 37.53-87.54 21.21-103.86l-5.66 5.66c12.21 12.21 11.65 59.69-21.21 92.55-19.27 19.27-42.06 25.3-53.93 27.19-10.92 1.73-21.28 1.33-28.92-.88a5.12 5.12 0 0 0-4.37 9.04 87.66 87.66 0 0 0 109.26-4.66 4 4 0 0 0-.3-6.27 4.12 4.12 0 0 0-5.1.34Z"/><path fill="#dc9af8" d="M144 36.36a5 5 0 0 0 1.02 3.02C147.11 42.12 155 48 155 48s7.89-5.87 9.98-8.62a5 5 0 0 0 1.02-3.02V21l-11-4-11 4v15.36Z"/></svg>